<svg xmlns="http://www.w3.org/2000/svg" enable-background="new 0 0 5000 3000" viewBox="0 0 5000 3000"><rect width="3139.2" height="20" x="930.4" y="2677" fill="#151515" class="color151515 svgShape"/><path fill="#61c7c9" d="M2507.5,2562.7c134.7-71.2,259.3-173.5,410.2-194.6c190.1-26.5,372.9,82.4,564.4,95.8   c300.8,21.1,589.3-225.8,635.3-523.7c46.1-298-139.1-609.9-414.6-732.4c-157.3-70-339-85.6-481.3-182.5   c-232-157.9-309.1-497.2-565.9-610.4c-194.7-85.8-419.5-7.9-614.8,76.7c-243,105.3-483.9,222.5-690.2,388.6   C1144.2,1046.3,973,1266,905.1,1522s-20.1,549.6,158.5,745.2c70.4,77.1,158.1,136.9,250.5,185.6c200.2,105.4,426.8,160.7,653,159.6   C2156.1,2611.5,2330.6,2656.3,2507.5,2562.7z" opacity=".5" class="color61c7c9 svgShape"/><path fill="#ffffff" d="M2942.9,2573.1c-3.8,2-7.6,3.9-10.6,6.9c-3.1,2.9-5.3,7-5.1,11.2c0.2,4.6,3.3,8.7,7.2,11.2     c3.8,2.6,8.3,3.9,12.8,5.1c15.4,4.4,31.2,8.8,47.2,8.2c16-0.7,32.7-7.3,41.4-20.7c5.9-9.2,7.6-20.4,9.1-31.2     c1.4-10.2,2.9-20.5,4.3-30.7c0.6-4.5,1.3-9.2-0.3-13.5c-2.2-6.4-9-10.4-15.7-11c-6.7-0.5-13.4,1.9-19.2,5.3     c-6.6,3.8-12.4,8.9-17.1,14.9c-5.3,6.7-7.1,14.5-11.3,21.6c-3.1,5.2-11.2,6.2-16.4,8.9     C2960.5,2563.9,2951.7,2568.5,2942.9,2573.1z" class="colorfff svgShape"/><path fill="#ffffff" d="M3075.1,2456c11.6-12.5,7.8-33.6-2.1-47.4c-9.9-13.9-25.4-22.4-40.4-30.5c-27.5-14.9-56.2-30.1-87.4-32.1      c-22.5-1.4-44.7,4.1-66.3,10.5c-60.9,18-119.7,43-174.9,74.3c-11.3,6.4-22.5,13.1-34.8,17.2c-12.3,4.1-26,5.4-38.1,0.8      l17.6,171.7c0.7,0.2,1.4,0.3,2,0.5c62.4,9,126.2,18,188.1,5.7c25.5-5,50.2-13.6,74.8-22.1c29.6-10.3,59.3-20.5,89-30.6      L3075.1,2456z" class="colorfff svgShape"/><path fill="#151515" d="M2773.3,2637.5c-41.4,0-82.7-6-123.2-11.8c-0.2,0-0.3-0.1-0.5-0.1l-2-0.5c-1.9-0.5-3.4-2.1-3.6-4.1      l-17.6-171.7c-0.2-1.6,0.5-3.3,1.8-4.3c1.3-1,3-1.3,4.6-0.7c12.5,4.7,25.9,2.1,34.9-0.9c10.7-3.5,20.9-9.4,30.7-15l3.2-1.8      c55.5-31.5,114.7-56.7,175.9-74.8c20.2-6,43.8-12.2,68-10.7c32.8,2.1,62.9,18.3,89.4,32.7c14.7,7.9,31.3,16.9,42,31.9      c11.1,15.5,15.2,38.8,1.7,53.4c-1.8,1.9-4.8,2.1-6.7,0.3c-1.9-1.8-2.1-4.8-0.3-6.7c9.9-10.8,6.1-29.4-2.5-41.4      c-9.4-13.2-25-21.7-38.8-29.1c-25.6-13.9-54.7-29.6-85.5-31.5c-22.6-1.4-45.2,4.6-64.7,10.3c-60.5,17.9-119,42.8-173.9,73.9      l-3.2,1.8c-10.3,5.9-20.9,11.9-32.4,15.7c-8.8,2.9-21.4,5.5-34.1,2.8l16.5,161.2c60.8,8.8,123.6,17.6,184.8,5.5      c25-4.9,49.7-13.5,73.6-21.7l0.6-0.2c29.5-10.2,59.4-20.5,89-30.6c2.5-0.9,5.2,0.5,6.1,3c0.9,2.5-0.5,5.2-3,6.1      c-29.6,10.1-59.5,20.4-89,30.6l-0.6,0.2c-24.2,8.4-49.2,17-74.8,22.1C2817.7,2635.8,2795.5,2637.5,2773.3,2637.5z" class="color151515 svgShape"/><path fill="#ffffff" d="M3010.6,2391.8c13.2,12.5,26.3,25,39.5,37.5c10.4,9.9,20.9,19.9,28.6,32c7.7,12.1,12.3,26.7,9.8,40.9      c-2.5,14.1-13.4,27.2-27.6,29.4L3010.6,2391.8z" class="colorfff svgShape"/><path fill="#151515" d="M3060.9,2536.3c-2.3,0-4.3-1.7-4.7-4c-0.4-2.6,1.4-5,4-5.5c11.4-1.8,21.3-12.5,23.6-25.5      c2.1-11.6-1.2-24.9-9.1-37.5c-7.4-11.7-17.8-21.5-27.8-31.1l-39.5-37.5c-1.9-1.8-2-4.8-0.2-6.7c1.8-1.9,4.8-2,6.7-0.2l39.5,37.5      c10.5,9.9,21.3,20.2,29.3,32.9c9.2,14.6,13,30.3,10.5,44.2c-3.1,17.1-16,30.8-31.5,33.3      C3061.5,2536.2,3061.2,2536.3,3060.9,2536.3z" class="color151515 svgShape"/><path fill="#ffffff" d="M3030.2,2440.8c8.1,25.2,16.3,50.5,24.4,75.7c4.1,12.6,8.2,25.6,6.8,38.7c-1.4,13.1-9.1,28.9-22,31.7      L3030.2,2440.8z" class="colorfff svgShape"/><path fill="#151515" d="M3039.3,2591.6c-2.2,0-4.2-1.5-4.7-3.8c-0.6-2.6,1.1-5.1,3.7-5.7c10.2-2.2,17.1-15.8,18.3-27.5      c1.3-12.3-2.9-25.3-6.6-36.7l-24.4-75.7c-0.8-2.5,0.6-5.2,3.1-6c2.5-0.8,5.2,0.6,6,3.1l24.4,75.7c4,12.3,8.5,26.3,7,40.6      c-1.6,14.9-10.3,32.5-25.8,35.8C3040,2591.6,3039.7,2591.6,3039.3,2591.6z" class="color151515 svgShape"/><path fill="#151515" d="M2996.9,2622.7c-12.1,0-25-4-37.7-7.9c-14.2-4.4-28.8-8.9-40.5-7c-2.6,0.4-5.1-1.4-5.5-4      c-0.4-2.6,1.4-5.1,4-5.5c13.9-2.2,29.6,2.6,44.8,7.3c15.1,4.7,30.8,9.5,43.1,6.6c19.3-4.6,31.2-24.4,34.4-41.9      c3.7-20-0.8-41.5-4.7-60.4c-0.5-2.6,1.1-5.1,3.7-5.6c2.6-0.5,5.1,1.1,5.6,3.7c4.1,19.8,8.8,42.3,4.8,64.1      c-3.8,20.6-18.1,43.9-41.5,49.5C3004,2622.3,3000.5,2622.7,2996.9,2622.7z" class="color151515 svgShape"/><path fill="#ffffff" d="M2053.2,904.1c-19,19.7-26.2,48.2-27.3,75.6c-1.1,27.4,3.2,54.7,3.8,82.1c1.6,77.9-24,165.5-77.8,221.8     c2.1-3,30.3,143.6,92.3,225.3c51.5,67.8,100.6,146.9,101.1,232c7.9-91.4,59-211.5,149.1-229c12.6-2.4,25.4,3.4,35.6,11.2     c10.2,7.8,18.7,17.6,29.1,25c35.5,25.2,86.4,17.3,122.5-7.2c36-24.5,70.9-66.5,94.3-103.2c30.4-9.6,58.3-27.2,88.7-36.8     c-14.7-39.7-20.5-83.7-19.2-126c37.1-32.9,64.9-76.2,79.4-123.6c9-29.6-19.2-57-39.2-80.6c-25.5-30.1-52.5-59.3-83.8-83.3     c-31.3-24-67.3-42.8-106-50.2c-37.6-7.2-77.2-3.4-112.7,10.9L2053.2,904.1z" class="colorfff svgShape"/><path fill="#151515" d="M2145.3,1745.8c-0.1,0-0.1,0-0.2,0c-2.5-0.1-4.6-2.2-4.6-4.7c-0.6-87-53.8-168.2-100.1-229.2     c-49.4-65.1-77.6-170.8-88.1-210.7c-1.7-6.3-3.3-12.4-4-14.5c-1.4-1.6-1.5-4-0.2-5.8c0.1-0.2,0.3-0.4,0.5-0.6     c48.8-51.2,78.1-134.8,76.5-218.4c-0.2-11.2-1.1-22.5-1.9-33.6c-1.2-15.9-2.5-32.4-1.8-48.8c0.9-23.3,6.6-55.9,28.7-78.7     c1.8-1.9,4.9-2,6.7-0.1c1.9,1.8,2,4.9,0.1,6.7c-19.9,20.7-25.1,50.8-26,72.5c-0.6,15.8,0.6,32,1.8,47.7c0.9,11.1,1.7,22.7,2,34.1     c0.8,40.5-5.6,82.2-18.4,120.6c-13.4,40.1-33.6,75.4-58.5,102.2c0.2,0.6,0.4,1.3,0.6,2.1c0.8,2.9,1.9,6.9,3.3,12.1     c10.5,39.3,38.2,143.7,86.5,207.3c40.1,52.8,85.3,120.5,98.4,194.7c7.6-37.1,21-73.7,38.5-104.4c28.7-50.1,66.2-80.9,108.6-89.1     c15.5-3,30,4.9,39.4,12.1c4.8,3.7,9.3,7.9,13.7,11.9c5.1,4.7,9.9,9.2,15.3,13c35.7,25.4,85.7,14,117-7.2     c30.9-21,65.6-59.1,93-101.8c0.6-0.9,1.5-1.6,2.6-2c14.9-4.7,29.6-11.5,43.7-18.2c13-6.1,26.4-12.3,40.2-17.1     c-13-37.2-19.2-79.7-17.8-123.1c0-1.3,0.6-2.5,1.6-3.4c36.7-32.5,63.7-74.5,78-121.4c7.2-23.7-13.2-47.2-31.2-67.9     c-2.5-2.8-4.8-5.5-7.1-8.2c-21.1-25-49.6-57-83.1-82.6c-33.9-26-69-42.6-104-49.3c-36.5-7-75.6-3.2-110.1,10.6     c-2.4,1-5.2-0.2-6.2-2.7c-1-2.4,0.2-5.2,2.7-6.2c36.2-14.5,77.1-18.5,115.4-11.1c36.6,7,72.9,24.2,108,51.1     c34.2,26.2,63.1,58.6,84.6,84c2.2,2.6,4.5,5.3,7,8.1c19.6,22.6,41.9,48.2,33.1,76.9c-14.6,47.9-42,90.9-79.2,124.4     c-1.2,43.3,5.4,85.5,18.9,122.1c0.5,1.2,0.4,2.6-0.2,3.8s-1.6,2.1-2.9,2.5c-14.9,4.7-29.6,11.5-43.8,18.2     c-14,6.5-28.4,13.3-43.3,18.1c-27.9,43.2-63.2,81.7-94.7,103.1c-19,12.9-41.6,21.1-63.7,23c-24.4,2.1-46.6-3.4-64.2-15.9     c-5.9-4.2-11.2-9.1-16.3-13.8c-4.4-4-8.5-7.9-13-11.3c-6.4-4.9-19-12.8-31.7-10.3c-83.1,16.2-136.8,127.8-145.2,224.7     C2149.8,1743.9,2147.8,1745.8,2145.3,1745.8z" class="color151515 svgShape"/><path fill="#ffffff" d="M1951.9,1283.6c-89.7,57.8-167.6,119.2-242.8,194.9c-147.6,148.5-237.3,346.4-287.4,549.6     c-50.1,203.2-63.1,442.1-76,651h607.5c1.8-95,44.3-182.1,86.4-267.3c42.1-85.2,90.6-167.9,119.4-258.4     c43.6-136.9,38-278.3-13.6-412.4c0,0-47.5-339.3-165.4-455.3C1975.5,1289.6,1956.8,1280.5,1951.9,1283.6z" class="colorfff svgShape"/><path fill="#151515" d="M1953.1,2684h-607.5c-1.3,0-2.6-0.5-3.5-1.5c-0.9-1-1.4-2.2-1.3-3.6l1.5-25.2     c12.4-202.1,26.4-431.1,74.6-626.7c26.6-108,62.8-207.7,107.5-296.4c49.8-98.7,110.8-184.7,181.1-255.5     c72.6-73.1,150.1-135.2,243.6-195.5v0c4.1-2.6,10.2-1.2,17.4,0.6c3.3,0.8,8.7,2.1,10.4,1.7c1.9-1.4,4.5-1.2,6.2,0.4     c27.3,26.9,53.1,67.8,76.6,121.6c18.7,42.8,36.1,93.8,51.6,151.7c25.3,94.3,37.4,176.7,38.5,184.2     c25.9,67.4,40.2,136.8,42.6,206.2c2.4,70.3-7.3,140.6-29.1,208.9c-21.9,68.8-55.6,134-88.1,197.1c-10.5,20.3-21.3,41.3-31.6,62     c-41.4,83.7-84.1,170.2-85.9,265.3C1957.8,2681.9,1955.7,2684,1953.1,2684z M1350.7,2674.4h597.7c1.4-41.8,10.6-85.8,28.3-134.2     c16.6-45.7,38.9-90.7,58.5-130.5c10.3-20.8,21.2-41.9,31.6-62.2c32.4-62.7,65.9-127.5,87.5-195.6c42.6-134,37.9-275.5-13.5-409.3     c-0.1-0.3-0.2-0.7-0.3-1.1c-0.1-0.8-12.2-85.8-38.4-183.7c-34.1-127.1-76.7-219.2-123.5-266.7c-3.9,0.7-8.8-0.5-14.3-1.8     c-3.2-0.8-8.5-2-10.1-1.7c-92.9,59.9-169.8,121.6-241.9,194.1c-133.5,134.3-229.7,318.4-286.2,547.4c-48,194.7-62,423.3-74.3,625     L1350.7,2674.4z M1951.9,1283.6l2.6,4L1951.9,1283.6z M1976.7,1282.2C1976.7,1282.2,1976.7,1282.2,1976.7,1282.2     C1976.7,1282.2,1976.7,1282.2,1976.7,1282.2z" class="color151515 svgShape"/><path fill="#ffffff" d="M1757.6,1750.8c-45.2,193.4-58.5,394.3-39.3,592c8.9,91.2,27.1,187.1,88.3,255.2     c47.4,52.7,116,82.6,185.8,95c69.8,12.4,141.3,8.6,212,3c153.3-12.2,305.9-32.8,456.9-61.8c0.2-67.1-10.6-129.6-26.5-194.8     c-3,1-202-18.4-302-31.9c-117.8-16-242-31.3-352,13.7L1757.6,1750.8z" class="colorfff svgShape"/><path fill="#151515" d="M2095.9,2706c-34.6,0-69.6-2.2-104.3-8.3c-37.2-6.6-71.7-17.6-102.6-32.8c-34-16.7-63-38.2-86-63.7     c-63.7-70.8-81-170.1-89.6-257.9c-9.6-98.7-11.1-199.1-4.5-298.4s21.4-198.7,43.9-295.2c0.6-2.6,3.2-4.2,5.7-3.6     c2.6,0.6,4.2,3.2,3.6,5.7c-45.3,193.8-58.5,392.4-39.2,590.5c8.4,86.2,25.3,183.7,87.1,252.5c54,60,129.4,84,183.1,93.5     c70.7,12.5,142.9,8.3,210.7,2.9c151.2-12,303.4-32.5,452.5-61c-0.2-56.1-8.1-113.9-25.5-186.2c-4.5-0.2-13.3-1-31-2.6     c-21.9-2-50.4-4.8-80.3-7.8c-36.1-3.7-126.8-13.2-187.6-21.5c-111.5-15.1-237.8-32.3-349.6,13.4c-2.4,1-5.2-0.2-6.2-2.6     c-1-2.4,0.2-5.2,2.6-6.2c49.5-20.3,106-30.1,172.7-30.1c0.7,0,1.4,0,2.2,0c58.1,0.2,115.7,7.4,179.5,16.1     c99.8,13.6,290.4,31.9,300.7,31.9c0,0,0,0,0.1,0c1-0.1,2,0.1,2.9,0.6c1.2,0.6,2,1.7,2.3,3c18.6,76.5,26.8,137,26.6,196     c0,2.3-1.6,4.2-3.9,4.7c-150.6,28.9-304.5,49.7-457.4,61.9C2169.4,2703.5,2132.8,2706,2095.9,2706z M2633.3,2434.8     C2633.3,2434.8,2633.3,2434.8,2633.3,2434.8C2633.3,2434.8,2633.3,2434.8,2633.3,2434.8z M2633.3,2434.8     C2633.3,2434.8,2633.3,2434.8,2633.3,2434.8C2633.3,2434.8,2633.3,2434.8,2633.3,2434.8z" class="color151515 svgShape"/><path fill="#151515" d="M2028.8 2410.1c-.4 0-.9-.1-1.3-.2-2.5-.7-4-3.4-3.3-5.9 66.7-231.5 82.2-473.5 46-719.2-.4-2.6 1.4-5 4-5.4 2.6-.4 5 1.4 5.4 4 17.9 121.5 23.1 244 15.6 364.2-7.6 122-28.4 242.8-61.9 359C2032.7 2408.7 2030.8 2410.1 2028.8 2410.1zM2467.6 1023.7c34.9-6.6 108.1 62.1 115.1 78.9 7 16.8 22.8 32.1 40.9 30.7 21.2-1.7 40.5-25.1 59.9-16.4 8.3 3.7 13 12.3 18.9 19.3 5.9 6.9 15.7 12.7 23.8 8.5 9.5-5 8.4-18.8 5.4-29.1-36.1-127-143.8-230.9-272-262.4-29.1-7.2-60-10.8-88.8-2.5-28.8 8.2-43.2 24.2-49.5 53.5C2305.5 978.8 2405.2 1035.5 2467.6 1023.7z" class="color151515 svgShape"/><path fill="#151515" d="M2720.4,1150.9c-8,0-16-5.2-21.5-11.6c-1.6-1.8-3.1-3.8-4.5-5.6c-4-5.2-7.7-10.1-12.8-12.4     c-9.3-4.2-19,0.9-30.2,6.8c-8.6,4.5-17.6,9.2-27.3,10c-21.2,1.7-38.2-15.7-45.7-33.6c-6.5-15.5-78.2-82.1-109.8-76.1l-0.9-4.7     l0.9,4.7c-19.2,3.6-42.3,1.2-65.2-6.9c-22.9-8.1-44.1-21.3-59.6-37.2c-23.4-24-32.9-52.8-26.9-81.1c6.7-31.3,22.5-48.4,52.8-57.1     c25.6-7.3,54.6-6.5,91.2,2.5c63.7,15.7,123.4,49.1,172.7,96.6c49.3,47.5,84.8,106,102.7,169.1c4.8,16.9,1.9,29.5-7.8,34.6     C2725.8,1150.3,2723.1,1150.9,2720.4,1150.9z M2674.4,1110.2c3.6,0,7.3,0.7,11.1,2.4c7.3,3.3,12,9.4,16.5,15.3     c1.4,1.9,2.8,3.6,4.2,5.2c4.8,5.6,12.4,10.3,17.9,7.4c7.9-4.1,4.3-19.1,3.1-23.6c-35.8-126.1-141.2-227.8-268.5-259.1     c-34.9-8.6-62.4-9.4-86.3-2.6c-26.8,7.7-40.2,22.1-46.1,49.9c-6.9,32.2,9.5,57.2,24.4,72.5c25.5,26.1,65.7,42.9,99.6,42.9     c5.7,0,11.3-0.5,16.6-1.5c21-4,50.6,15,71.8,31.6c22.7,17.8,44.5,40.3,48.6,50.2c6,14.3,19.8,29.1,36.2,27.8     c7.8-0.6,15.9-4.8,23.7-8.9C2655.8,1115,2664.9,1110.2,2674.4,1110.2z" class="color151515 svgShape"/><path fill="#151515" d="M2720.5,1146.8c31.3-3.3,57.8-32.4,58.1-63.9c0.3-31.5-25.6-61.1-56.9-65c24.7-13.3,40.1-42,37.5-70     c-2.6-27.9-23-53.4-49.7-61.9c14.9,0.4,28.5-10.8,34.2-24.6c5.7-13.8,4.8-29.6,1-44.1c-13.4-51.9-64.3-91.7-117.9-92.1     c-1.5-36.5-27.2-70.9-61.8-82.7c-34.6-11.8-75.9-0.4-99.5,27.5c-9.8-26.7-48.3-47.9-76.6-50.6c-28.3-2.7-57.5,12.1-72.1,36.5     c-14.4-27.3-49.8-41.5-79.1-31.8c-29.3,9.7-49.2,42.2-44.5,72.8c-34.5-11.9-75.5-1.8-100.6,24.7c-25.1,26.5-32.9,68-19.1,101.8     c-31-7-65.7,7.6-82.3,34.7c-16.6,27.1-14,64.6,6.3,89.1c-12.2,16.6-24.2,49.4-32.2,68.4c-8,19-11.5,40.7-5.3,60.4     c5,15.9,15.7,29.3,23.5,44c19.6,37.2,19.3,84.2-0.8,121.1c92.8,24.6,190.8-8.5,252.1-82.4c20.3-24.5,15.7-61.4,21.9-92.5     c6.2-31.2,14.2-62.9,32.5-88.8c18.3-26,49.1-45.3,80.7-41.5L2720.5,1146.8z" class="color151515 svgShape"/><path fill="#151515" d="M2044.4 1254c-21.1 0-42.3-2.7-62.9-8.2-1.4-.4-2.6-1.4-3.2-2.7-.6-1.3-.5-2.9.2-4.2 19.2-35.3 19.5-81 .8-116.6-2.6-4.9-5.6-9.8-8.5-14.5-5.8-9.5-11.9-19.3-15.3-30.3-5.9-18.8-3.9-41.4 5.5-63.7 1.5-3.6 3.2-7.7 5-12.1 7.3-18 16.3-40 25.7-54.2-19.5-26-21.5-64-4.4-91.8 16.2-26.4 48.5-41.7 79.2-38.3-4.7-15.3-5.6-31.9-2.5-48.5 3.6-19.4 12.4-36.9 25.4-50.6 12.9-13.7 29.9-23.4 49.1-28.1 16.7-4.1 33.7-4.1 49.6.1-.5-13.6 3.2-27.6 10.8-40.1 9-14.7 22.3-25.6 37.6-30.6 15.3-5.1 32.5-4.3 48.4 2.1 13.4 5.4 24.7 14.3 32.4 25.4 16.5-22.2 44.7-35 72.4-32.4 28 2.6 63.7 21.6 77.5 46.8 11.5-11.5 26.6-20.2 43-24.8 18.9-5.2 39.1-4.8 56.7 1.2 17.6 6 33.8 18 45.6 33.7 10.8 14.5 17.5 31.7 19.2 48.8 54.2 2.5 104.5 42.9 118.1 95.5 4.7 18 4.2 33.9-1.2 47.1-4.6 11.2-13.3 19.9-23.3 24.4 21.4 12.3 36.8 35.2 39.1 59.9 2.4 25.8-9.7 52.4-30.2 68.2 11.9 3.8 22.9 11.1 31.8 21.2 11.6 13.3 18 29.6 17.8 46-.2 16.4-6.8 32.6-18.7 45.7-11.9 13.1-27.4 21.2-43.7 22.9-2.6.3-5-1.6-5.2-4.3-.3-2.6 1.6-5 4.3-5.2 28.9-3 53.6-30.1 53.8-59.2.3-29.1-23.9-56.6-52.7-60.2-2.1-.3-3.7-1.8-4.1-3.9-.4-2 .6-4.1 2.4-5.1 23-12.4 37.4-39.3 35-65.3-2.4-26-21.5-49.8-46.4-57.8-2.3-.7-3.6-3-3.2-5.3.4-2.3 2.5-4 4.8-4 12.1.3 24.3-8.6 29.7-21.7 4.7-11.3 4.9-25.1.8-41-12.9-50-61.6-88.1-113.3-88.5-2.5 0-4.6-2-4.7-4.6-1.5-34.3-26.1-67.3-58.6-78.4-32.5-11.1-72.1-.1-94.3 26.1-1.1 1.3-2.8 1.9-4.5 1.6-1.7-.3-3.1-1.5-3.7-3.1-4.2-11.3-14.6-22.7-29.4-31.9-13.6-8.5-29.7-14.3-43.1-15.6-26.7-2.5-53.8 11.2-67.6 34.2-.9 1.5-2.5 2.4-4.2 2.3-1.7 0-3.3-1-4.1-2.5-13.4-25.3-46.3-38.5-73.4-29.5-27.1 9-45.7 39.3-41.3 67.5.3 1.7-.4 3.3-1.7 4.4-1.3 1.1-3 1.4-4.6.8-32.6-11.2-71.9-1.6-95.6 23.5-23.7 25-31.2 64.8-18.2 96.8.7 1.6.4 3.5-.8 4.9-1.1 1.4-3 2-4.7 1.6-29.1-6.6-61.6 7.1-77.2 32.6-15.6 25.4-13.1 60.6 5.9 83.6 1.4 1.7 1.5 4.1.2 5.9-9.5 13-19 36.4-26.7 55.2-1.8 4.4-3.5 8.6-5 12.2-8.5 20.2-10.3 40.5-5.1 57.2 3.1 9.9 8.6 18.8 14.3 28.2 3 4.8 6.1 9.9 8.8 15 10 18.9 15.2 40.7 15.1 62.9-.1 20.1-4.6 39.8-13.1 57.2 88.1 21 182.3-10.9 241.4-82.2 13.2-15.9 15.1-37.5 17.2-60.5.9-10 1.8-20.2 3.7-29.9 5.8-29.3 13.7-62.9 33.2-90.7 21.2-30.1 54.6-47.1 85.2-43.5 2.6.3 4.5 2.7 4.2 5.3-.3 2.6-2.7 4.5-5.3 4.2-27.1-3.2-57 12.3-76.2 39.5-18.5 26.2-26 58.7-31.7 87-1.8 9.2-2.7 19.2-3.6 28.9-2.1 23.4-4.2 47.5-19.3 65.7-30.8 37.1-71 64.6-116.4 79.6C2096.7 1249.9 2070.5 1254 2044.4 1254zM3930.7 2617.9h-844c-20.3 0-36.8 16.5-36.8 36.8v24.4h880.9V2617.9z" class="color151515 svgShape"/><path fill="#151515" d="M3930.7,2684h-880.9c-2.6,0-4.8-2.1-4.8-4.8v-24.4c0-22.9,18.7-41.6,41.6-41.6h844c2.6,0,4.8,2.1,4.8,4.8     v61.3C3935.5,2681.8,3933.4,2684,3930.7,2684z M3054.7,2674.4H3926v-51.7h-839.2c-17.7,0-32.1,14.4-32.1,32.1V2674.4z" class="color151515 svgShape"/><polygon fill="#151515" points="4092.8 1878.1 4147.3 1894.4 3930.9 2617.9 3871.6 2617.9" class="color151515 svgShape"/><path fill="#151515" d="M3930.9,2622.2h-59.4c-1.3,0-2.6-0.6-3.4-1.7c-0.8-1.1-1-2.5-0.7-3.8l221.2-739.8c0.7-2.3,3-3.5,5.3-2.9     l54.5,16.3c1.1,0.3,2,1.1,2.5,2.1c0.5,1,0.7,2.2,0.3,3.2L3935,2619.1C3934.5,2620.9,3932.8,2622.2,3930.9,2622.2z M3877.3,2613.7     h50.5l214.2-716.4l-46.3-13.9L3877.3,2613.7z" class="color151515 svgShape"/><g fill="#000000" class="color000 svgShape"><path fill="#61c7c9" d="M3768.3,1541h-669.5c-19.1,0-266.4-115.9-266.4-115.9l152.3,258.9c11.9,52.1,58.4,90.9,114.1,90.9h669.5     c64.6,0,117-52.4,117-117l0,0C3885.3,1593.4,3832.9,1541,3768.3,1541z" class="color61c7c9 svgShape"/><path fill="#151515" d="M3768.3,1779.8h-669.5c-27.8,0-54.9-9.6-76.5-27c-21-17-36-40.7-42.1-66.9l-151.9-258.3     c-1.1-1.8-0.8-4.1,0.6-5.6c1.4-1.5,3.7-2,5.6-1.1c0.6,0.3,62.5,29.3,125.9,57.9c115,51.9,135.1,57.5,138.4,57.5h669.5     c67.1,0,121.8,54.6,121.8,121.8C3890,1725.1,3835.4,1779.8,3768.3,1779.8z M2844.3,1436l144.5,245.7c0.2,0.4,0.4,0.9,0.5,1.4     c11.7,51.3,56.7,87.2,109.4,87.2h669.5c61.9,0,112.2-50.3,112.2-112.2s-50.3-112.2-112.2-112.2h-669.5c-3.6,0-13,0-142.3-58.3     C2911,1466.9,2866.3,1446.2,2844.3,1436z" class="color151515 svgShape"/></g><g fill="#000000" class="color000 svgShape"><path fill="#151515" d="M3406.6 1707l-103.4-43.9v-17.9l103.4-43.9v19.1l-82.1 33.8 82.1 33.8V1707zM3479.3 1574.9l-45.2 156.3h-15.5l45.2-156.3H3479.3zM3594.7 1663.1l-103.4 43.9v-19.1l82.1-33.8-82.1-33.8v-19.1l103.4 43.9V1663.1z" class="color151515 svgShape"/></g><g fill="#000000" class="color000 svgShape"><path fill="#ffffff" d="M2338.8,974.2c-7.4-17.3-28.3-26.2-46.9-23.6c-18.6,2.5-34.9,14.4-47.3,28.5     c-23.8,27.1-36.1,64.1-33.1,100.1c3,36,21.2,70.4,49.2,93.2L2338.8,974.2z" class="colorfff svgShape"/><path fill="#151515" d="M2260.7,1177.2c-1.1,0-2.1-0.4-3-1.1c-28.8-23.4-47.8-59.5-50.9-96.5c-3.1-37,9.7-75.8,34.2-103.6     c10.6-12,27.9-27,50.3-30.1c22.3-3,44.1,8.1,52,26.5c1,2.4-0.1,5.2-2.5,6.3c-2.4,1-5.2-0.1-6.3-2.5     c-6.1-14.3-24.1-23.2-41.9-20.8c-19.5,2.6-34.9,16.1-44.4,26.9c-22.8,26-34.8,62.1-31.9,96.5c2.9,34.5,20.6,68.1,47.4,89.9     c2,1.7,2.4,4.7,0.7,6.7C2263.5,1176.6,2262.1,1177.2,2260.7,1177.2z" class="color151515 svgShape"/></g><g fill="#000000" class="color000 svgShape"><path fill="#151515" d="M2261.1 1091.8c-3.5 0-6.9-.6-10-2-2.4-1-3.6-3.8-2.5-6.3 1-2.4 3.8-3.6 6.3-2.5 4.9 2.1 11 1.5 16.3-1.5 5.3-3 9-7.9 9.8-13.1.8-5.3-.6-10.8-2.1-16.6-1.2-4.9-2.5-9.9-2.6-15.2-.4-18.5 14.8-35.3 33.2-36.8 2.6-.2 4.9 1.7 5.1 4.4.2 2.6-1.7 4.9-4.4 5.1-13.3 1.1-24.7 13.7-24.4 27.1.1 4.2 1.2 8.5 2.3 13.1 1.6 6.5 3.3 13.2 2.3 20.3-1.2 8.1-6.7 15.6-14.5 20C2271.2 1090.5 2266.1 1091.8 2261.1 1091.8zM2665.8 1230.7c-1.5 0-2.9-.7-3.8-1.9-12.9-17.4-34.4-28.7-56-29.4-2.6-.1-4.7-2.3-4.6-4.9.1-2.6 2.2-4.6 4.8-4.6.1 0 .1 0 .2 0 24.9.8 48.6 13.2 63.4 33.2 1.6 2.1 1.1 5.1-1 6.7C2667.7 1230.3 2666.7 1230.7 2665.8 1230.7zM2464.9 1464.5c-.8 0-1.5-.2-2.2-.6-26.1-13.9-42.6-44.2-40-73.6.2-2.6 2.6-4.6 5.2-4.3 2.6.2 4.6 2.5 4.3 5.2-2.2 25.8 12.2 52.2 35 64.4 2.3 1.2 3.2 4.1 2 6.5C2468.2 1463.5 2466.6 1464.5 2464.9 1464.5z" class="color151515 svgShape"/><ellipse cx="2610.1" cy="1262.3" fill="#151515" rx="21.4" ry="12.6" transform="rotate(-60 2610.216 1262.406)" class="color151515 svgShape"/></g></svg>